<?xml version="1.0" encoding="utf-8"?><!-- Uploaded to: SVG Repo, www.svgrepo.com, Generator: SVG Repo Mixer Tools -->
<svg width="800px" height="800px" viewBox="0 0 16 16" xmlns="http://www.w3.org/2000/svg">
    <path d="M8 1a4 4 0 0 0-4 4 4 4 0 0 0 .254 1.395 4 4 0 0 1-.068-.192C4.918 8.401 6.392 12.585 8 15.77c1.608-3.185 3.082-7.37 3.814-9.567A4 4 0 0 0 12 5a4 4 0 0 0-4-4zm0 1a3 3 0 0 1 3 3 3 3 0 0 1-3 3 3 3 0 0 1-3-3 3 3 0 0 1 3-3z" style="marker:none" color="#000000" overflow="visible" fill="gray"/>
</svg>