<?xml version="1.0" encoding="iso-8859-1"?>
<!-- Uploaded to: SVG Repo, www.svgrepo.com, Generator: SVG Repo Mixer Tools -->
<svg height="800px" width="800px" version="1.1" id="Layer_1" xmlns="http://www.w3.org/2000/svg" xmlns:xlink="http://www.w3.org/1999/xlink" 
	 viewBox="0 0 511.875 511.875" xml:space="preserve">
<g>
	<path style="fill:#E4E5E6;" d="M313.317,320.026V61.793C313.317,27.666,285.651,0,251.524,0s-61.793,27.666-61.793,61.793v258.233
		c-26.456,19.059-43.82,49.946-44.138,84.966c-0.494,56.479,45.374,104.669,101.817,106.805
		c60.381,2.286,110.045-45.983,110.045-105.852C357.455,370.529,340.011,339.262,313.317,320.026"/>
	<path style="fill:#6CA1E9;" d="M248.747,476.518c-37.102-1.404-68.175-34.022-67.84-71.203
		c0.203-22.652,10.946-43.299,29.458-56.638l14.671-10.575v-55.614c0-14.61,11.882-26.483,26.483-26.483
		c14.61,0,26.483,11.873,26.483,26.483v55.614l14.68,10.575c18.441,13.286,29.458,34.701,29.458,57.273
		c0,18.865-7.345,36.599-20.674,49.938c-13.339,13.338-31.073,20.683-49.938,20.683
		C251.519,476.571,249.674,476.554,248.747,476.518"/>
	<g>
		<path style="fill:#F0C419;" d="M428.075,348.691c0-19.518,15.793-35.31,35.31-35.31c-19.518,0-35.31-15.793-35.31-35.31
			c0,19.518-15.793,35.31-35.31,35.31C412.283,313.38,428.075,329.173,428.075,348.691"/>
		<path style="fill:#F0C419;" d="M366.282,61.794c-4.882,0-8.828-3.946-8.828-8.828v-35.31c0-4.882,3.946-8.828,8.828-8.828
			c4.882,0,8.828,3.946,8.828,8.828v35.31C375.11,57.848,371.164,61.794,366.282,61.794"/>
		<path style="fill:#F0C419;" d="M383.937,44.139h-35.31c-4.882,0-8.828-3.946-8.828-8.828s3.946-8.828,8.828-8.828h35.31
			c4.882,0,8.828,3.946,8.828,8.828S388.819,44.139,383.937,44.139"/>
		<polygon style="fill:#F0C419;" points="110.282,97.104 83.8,70.622 110.282,44.139 136.765,70.622 		"/>
		<path style="fill:#F0C419;" d="M66.144,326.622c0,4.873-3.955,8.828-8.828,8.828s-8.828-3.955-8.828-8.828
			c0-4.873,3.955-8.828,8.828-8.828S66.144,321.749,66.144,326.622"/>
	</g>
	<g>
		<path style="fill:#6CA1E9;" d="M251.524,88.277c4.882,0,8.828-3.946,8.828-8.828s-3.946-8.828-8.828-8.828h-61.793v17.655H251.524
			z"/>
		<path style="fill:#6CA1E9;" d="M225.041,123.587c4.882,0,8.828-3.946,8.828-8.828c0-4.882-3.946-8.828-8.828-8.828h-35.31v17.655
			H225.041z"/>
		<path style="fill:#6CA1E9;" d="M251.524,158.897c4.882,0,8.828-3.946,8.828-8.828c0-4.882-3.946-8.828-8.828-8.828h-61.793v17.655
			H251.524z"/>
		<path style="fill:#6CA1E9;" d="M225.041,194.208c4.882,0,8.828-3.946,8.828-8.828s-3.946-8.828-8.828-8.828h-35.31v17.655H225.041
			z"/>
		<path style="fill:#6CA1E9;" d="M251.524,229.518c4.882,0,8.828-3.946,8.828-8.828s-3.946-8.828-8.828-8.828h-61.793v17.655
			H251.524z"/>
	</g>
</g>
</svg>